<?xml version="1.0" standalone="no"?>
<!DOCTYPE svg PUBLIC "-//W3C//DTD SVG 20010904//EN"
 "http://www.w3.org/TR/2001/REC-SVG-20010904/DTD/svg10.dtd">
<svg version="1.0" xmlns="http://www.w3.org/2000/svg"
 width="270.000000pt" height="270.000000pt" viewBox="0 0 270.000000 270.000000"
 preserveAspectRatio="xMidYMid meet">
<metadata>
Created by potrace 1.14, written by Peter Selinger 2001-2017
</metadata>
<g transform="translate(0.000000,270.000000) scale(0.100000,-0.100000)"
fill="#000000" stroke="none">
<path d="M413 2645 c-165 -45 -287 -156 -351 -321 l-27 -69 -3 -850 c-2 -589
0 -870 8 -915 14 -82 66 -191 120 -252 54 -62 150 -124 229 -148 61 -19 94
-20 930 -20 561 0 882 4 911 11 122 28 255 128 317 239 71 126 67 74 71 1000
2 558 -1 858 -8 904 -32 206 -177 369 -375 421 -85 22 -1741 22 -1822 0z
m1004 -575 c7 -14 20 -51 29 -84 11 -35 30 -72 49 -92 45 -48 90 -46 191 6 43
22 83 40 89 40 21 0 105 -81 111 -106 4 -17 -4 -45 -29 -92 -79 -150 -54 -208
108 -257 81 -25 95 -42 95 -121 0 -65 -19 -88 -84 -103 -162 -39 -197 -110
-123 -252 21 -39 37 -78 37 -88 0 -16 -99 -121 -114 -121 -3 0 -41 18 -83 40
-144 74 -207 48 -252 -104 -14 -47 -30 -80 -41 -86 -29 -15 -145 -13 -159 4
-6 7 -18 38 -27 67 -50 168 -109 195 -257 119 l-79 -41 -34 22 c-43 26 -84 79
-84 108 0 12 10 38 23 59 92 147 57 233 -109 273 -67 16 -84 38 -84 109 0 73
16 93 95 115 158 44 186 109 109 255 -19 35 -34 72 -34 82 0 24 76 107 104
114 13 3 50 -10 99 -36 145 -75 201 -49 251 119 23 80 27 82 115 79 69 -3 76
-5 88 -28z"/>
<path d="M1249 1626 c-89 -32 -146 -86 -174 -165 -45 -127 22 -277 147 -331
43 -18 65 -22 123 -18 78 5 119 23 168 72 48 48 70 101 75 179 4 58 0 75 -22
122 -60 121 -200 183 -317 141z"/>
</g>
</svg>
